<svg xmlns="http://www.w3.org/2000/svg" xmlns:xlink="http://www.w3.org/1999/xlink" version="1.1" viewBox="448.5 15 97.5 159.75">
<defs>
<clipPath id="clip_0">
<path transform="matrix(.24,0,0,.24,0,0)" d="M0 0H4140.625V2818.75H0Z"/>
</clipPath>
<clipPath id="clip_1">
<path transform="matrix(.24,0,0,.24,0,0)" d="M4140.625 0H0V2818.75H4140.625V0ZM1871.875 78.125V703.125C1871.8749 704.8509 1872.4851 706.324 1873.7055 707.5444 1874.9258 708.7648 1876.399 709.37496 1878.125 709.375H2196.875C2204.7486 709.37496 2212.3226 707.86837 2219.5968 704.8553 2226.8709 701.84219 2233.2918 697.5519 2238.8594 691.98446 2244.4266 686.4169 2248.7169 679.996 2251.73 672.72177 2254.7432 665.44747 2256.2498 657.87356 2256.25 650V78.125C2256.2498 76.39911 2255.6397 74.92597 2254.4193 73.70558 2253.1988 72.48519 2251.7259 71.875 2250 71.875H1878.125C1876.399 71.875 1874.9258 72.48519 1873.7055 73.70558 1872.4851 74.92597 1871.8749 76.39911 1871.875 78.125Z" fill-rule="evenodd"/>
</clipPath>
<clipPath id="clip_2">
<path transform="matrix(.24,0,0,.24,0,0)" d="M0 0H4140.625V2818.75H0Z" fill-rule="evenodd"/>
</clipPath>
<clipPath id="clip_3">
<path transform="matrix(.24,0,0,.24,0,0)" d="M0 0H4140.625V2818.75H0Z"/>
</clipPath>
<clipPath id="clip_4">
<path transform="matrix(.24,0,0,.24,0,0)" d="M2143.75 643.75C2143.7498 637.53396 2144.9393 631.5545 2147.3179 625.81167 2149.6966 620.0688 2153.0838 614.99966 2157.4793 610.6043 2161.8746 606.2089 2166.9437 602.82186 2172.6866 600.4431 2178.4295 598.0644 2184.409 596.875 2190.625 596.875 2196.8409 596.875 2202.8204 598.0644 2208.5633 600.4431 2214.3057 602.82186 2219.3748 606.2089 2223.7706 610.6043 2228.1658 614.99966 2231.5528 620.0688 2233.9315 625.81167 2236.3106 631.5545 2237.5 637.53396 2237.5 643.75 2237.5 649.96597 2236.3106 655.9453 2233.9315 661.6882 2231.5528 667.431 2228.1658 672.5002 2223.7706 676.89559 2219.3748 681.2909 2214.3057 684.678 2208.5633 687.05679 2202.8204 689.4355 2196.8409 690.62496 2190.625 690.625 2184.409 690.62496 2178.4295 689.4355 2172.6866 687.05679 2166.9437 684.678 2161.8746 681.2909 2157.4793 676.89559 2153.0838 672.5002 2149.6966 667.431 2147.3179 661.6882 2144.9393 655.9453 2143.7498 649.96597 2143.75 643.75Z"/>
</clipPath>
<clipPath id="clip_5">
<path transform="matrix(.24,0,0,.24,0,0)" d="M0 0H4140.625V2818.75H0Z" fill-rule="evenodd"/>
</clipPath>
<clipPath id="clip_6">
<path transform="matrix(.24,0,0,.24,0,0)" d="M0 0H4140.625V2818.75H0Z"/>
</clipPath>
<clipPath id="clip_7">
<path transform="matrix(.24,0,0,.24,0,0)" d="M4140.625 0H0V2818.75H4140.625V0ZM1950 321.875C1947.9166 321.875 1946.875 322.91667 1946.875 325 1946.875 327.08335 1947.9166 328.125 1950 328.125 1952.0834 328.125 1953.125 327.08335 1953.125 325 1953.125 322.91667 1952.0834 321.875 1950 321.875Z" fill-rule="evenodd"/>
</clipPath>
<clipPath id="clip_8">
<path transform="matrix(.24,0,0,.24,0,0)" d="M0 0H4140.625V2818.75H0Z" fill-rule="evenodd"/>
</clipPath>
<clipPath id="clip_9">
<path transform="matrix(.24,0,0,.24,0,0)" d="M0 0H4140.625V2818.75H0Z"/>
</clipPath>
<clipPath id="clip_10">
<path transform="matrix(.24,0,0,.24,0,0)" d="M2212.5 175C2212.4998 171.68477 2213.1339 168.49575 2214.4027 165.43289 2215.6715 162.37004 2217.4779 159.6665 2219.822 157.32231 2222.1663 154.9781 2224.8699 153.17166 2227.9327 151.903 2230.9954 150.63434 2234.1846 150 2237.5 150 2240.8153 150 2244.0042 150.63434 2247.067 151.903 2250.1297 153.17166 2252.833 154.9781 2255.1776 157.32231 2257.5218 159.6665 2259.3282 162.37004 2260.5968 165.43289 2261.8656 168.49575 2262.4998 171.68477 2262.5 175 2262.4998 178.3152 2261.8656 181.50421 2260.5968 184.56707 2259.3282 187.62992 2257.5218 190.33344 2255.1776 192.67766 2252.833 195.02185 2250.1297 196.8283 2247.067 198.09696 2244.0042 199.36563 2240.8153 199.99999 2237.5 200 2234.1846 199.99999 2230.9954 199.36563 2227.9327 198.09696 2224.8699 196.8283 2222.1663 195.02185 2219.822 192.67766 2217.4779 190.33344 2215.6715 187.62992 2214.4027 184.56707 2213.1339 181.50421 2212.4998 178.3152 2212.5 175Z"/>
</clipPath>
<clipPath id="clip_11">
<path transform="matrix(.24,0,0,.24,0,0)" d="M0 0H4140.625V2818.75H0Z" fill-rule="evenodd"/>
</clipPath>
<clipPath id="clip_12">
<path transform="matrix(.24,0,0,.24,0,0)" d="M0 0H4140.625V2818.75H0Z"/>
</clipPath>
<clipPath id="clip_13">
<path transform="matrix(.24,0,0,.24,0,0)" d="M2239.0386 479.52967C2240.5975 483.81315 2241.2777 488.2319 2241.0787 492.78596 2240.8797 497.34004 2239.817 501.68275 2237.8907 505.81413 2235.964 509.9454 2233.3204 513.55087 2229.9595 516.6305 2226.5989 519.71017 2222.7769 522.0295 2218.4935 523.58859L2136.2703 553.5153C2131.9866 555.07437 2127.5677 555.75448 2123.0137 555.5556 2118.4598 555.35678 2114.117 554.2941 2109.9859 552.3677 2105.8546 550.4412 2102.249 547.7976 2099.1693 544.4368 2096.0899 541.076 2093.7706 537.25387 2092.2115 532.97036 2090.652 528.6868 2089.972 524.268 2090.171 519.7139 2090.3697 515.15988 2091.4324 510.81718 2093.359 506.68586 2095.2855 502.55448 2097.929 498.949 2101.2899 495.8694 2104.6507 492.78977 2108.473 490.47047 2112.7567 488.91145L2194.9796 458.98469C2199.263 457.42558 2203.6815 456.74543 2208.2354 456.94429 2212.7894 457.1431 2217.1324 458.20576 2221.264 460.13227 2225.395 462.0587 2229.0006 464.70234 2232.0804 468.06315 2235.16 471.42399 2237.4793 475.24617 2239.0386 479.52967Z"/>
</clipPath>
<clipPath id="clip_14">
<path transform="matrix(.24,0,0,.24,0,0)" d="M0 0H4140.625V2818.75H0Z" fill-rule="evenodd"/>
</clipPath>
<clipPath id="clip_15">
<path transform="matrix(.24,0,0,.24,0,0)" d="M0 0H4140.625V2818.75H0Z"/>
</clipPath>
<clipPath id="clip_16">
<path transform="matrix(.24,0,0,.24,0,0)" d="M4140.625 0H0V2818.75H4140.625V0ZM2025 612.5C2022.9166 612.5 2021.875 613.5417 2021.875 615.625 2021.875 617.7083 2022.9166 618.75 2025 618.75H2056.25C2058.3333 618.75 2059.375 617.7083 2059.375 615.625 2059.375 613.5417 2058.3333 612.5 2056.25 612.5H2025Z" fill-rule="evenodd"/>
</clipPath>
<clipPath id="clip_17">
<path transform="matrix(.24,0,0,.24,0,0)" d="M0 0H4140.625V2818.75H0Z" fill-rule="evenodd"/>
</clipPath>
<clipPath id="clip_18">
<path transform="matrix(.24,0,0,.24,0,0)" d="M0 0H4140.625V2818.75H0Z"/>
</clipPath>
<clipPath id="clip_19">
<path transform="matrix(.24,0,0,.24,0,0)" d="M4140.625 0H0V2818.75H4140.625V0ZM2125 500C2122.099 500 2119.3087 500.55503 2116.6285 501.6651 2113.9486 502.77519 2111.5828 504.3558 2109.5318 506.40699 2107.4805 508.45817 2105.9 510.82374 2104.7899 513.5037 2103.6798 516.1837 2103.1248 518.9742 2103.125 521.875 2103.1248 524.7758 2103.6798 527.5662 2104.7899 530.2462 2105.9 532.92617 2107.4805 535.29177 2109.5318 537.34298 2111.5828 539.39419 2113.9486 540.9748 2116.6285 542.08486 2119.3087 543.1949 2122.099 543.74996 2125 543.75 2127.9007 543.74996 2130.6912 543.1949 2133.371 542.08486 2136.051 540.9748 2138.4166 539.39419 2140.4678 537.34298 2142.5189 535.29177 2144.0994 532.92617 2145.2095 530.24618 2146.3197 527.56619 2146.8748 524.7758 2146.875 521.875 2146.8748 518.9742 2146.3197 516.1837 2145.2095 513.5037 2144.0994 510.82374 2142.5189 508.45817 2140.4678 506.40699 2138.4166 504.3558 2136.051 502.77519 2133.371 501.6651 2130.6912 500.55503 2127.9007 500 2125 500Z" fill-rule="evenodd"/>
</clipPath>
<clipPath id="clip_20">
<path transform="matrix(.24,0,0,.24,0,0)" d="M0 0H4140.625V2818.75H0Z" fill-rule="evenodd"/>
</clipPath>
<clipPath id="clip_21">
<path transform="matrix(.24,0,0,.24,0,0)" d="M0 0H4140.625V2818.75H0Z"/>
</clipPath>
<clipPath id="clip_22">
<path transform="matrix(.24,0,0,.24,0,0)" d="M4140.625 0H0V2818.75H4140.625V0ZM2171.875 640.625C2169.7918 640.625 2168.75 641.6667 2168.75 643.75 2168.75 645.8333 2169.7918 646.875 2171.875 646.875 2173.9583 646.875 2175 645.8333 2175 643.75 2175 641.6667 2173.9583 640.625 2171.875 640.625Z" fill-rule="evenodd"/>
</clipPath>
<clipPath id="clip_23">
<path transform="matrix(.24,0,0,.24,0,0)" d="M0 0H4140.625V2818.75H0Z" fill-rule="evenodd"/>
</clipPath>
</defs>
<g clip-path="url(#clip_0)">
<g clip-path="url(#clip_1)">
<path transform="matrix(.75,0,0,.75,3.75,3.75)" d="M598 225V25C597.99996 24.602173 598.07608 24.219489 598.2283 23.851946 598.38058 23.484406 598.59738 23.159983 598.87869 22.87868 599.1599 22.597374 599.4843 22.3806 599.85189 22.22836 600.2194 22.07612 600.6021 22 601 22H720C720.39779 22 720.78048 22.07612 721.148 22.22836 721.5155 22.3806 721.8399 22.597374 722.1213 22.87868 722.4026 23.159983 722.6193 23.484406 722.77157 23.851948 722.92379 24.219489 722.99996 24.602173 723 25V208C722.99996 209.31322 722.8718 210.61382 722.61569 211.9018 722.35946 213.18978 721.98007 214.44039 721.4775 215.65364 720.975 216.8669 720.3589 218.01947 719.6293 219.11136 718.8997 220.20328 718.0706 221.21353 717.1421 222.14212 716.21347 223.07071 715.2032 223.8998 714.11129 224.62937 713.01937 225.35895 711.86679 225.975 710.65359 226.47756 709.4403 226.9801 708.1897 227.35948 706.90176 227.61569 705.6138 227.87189 704.3132 227.99999 703 228H601C600.6021 227.99999 600.2194 227.92386 599.85189 227.77162 599.4843 227.61937 599.1599 227.4026 598.87869 227.1213 598.59738 226.83998 598.38058 226.51557 598.2283 226.14803 598.07608 225.78049 597.99996 225.39781 598 225Z" fill="#646060"/>
</g>
</g>
<g clip-path="url(#clip_2)">
<path transform="matrix(.75,0,0,.75,0,0)" d="M598 225V25C597.99996 24.602173 598.07608 24.219489 598.2283 23.851946 598.38058 23.484406 598.59738 23.159983 598.87869 22.87868 599.1599 22.597374 599.4843 22.3806 599.85189 22.22836 600.2194 22.07612 600.6021 22 601 22H720C720.39779 22 720.78048 22.07612 721.148 22.22836 721.5155 22.3806 721.8399 22.597374 722.1213 22.87868 722.4026 23.159983 722.6193 23.484406 722.77157 23.851948 722.92379 24.219489 722.99996 24.602173 723 25V208C722.99996 209.31322 722.8718 210.61382 722.61569 211.9018 722.35946 213.18978 721.98007 214.44039 721.4775 215.65364 720.975 216.8669 720.3589 218.01947 719.6293 219.11136 718.8997 220.20328 718.0706 221.21353 717.1421 222.14212 716.21347 223.07071 715.2032 223.8998 714.11129 224.62937 713.01937 225.35895 711.86679 225.975 710.65359 226.47756 709.4403 226.9801 708.1897 227.35948 706.90176 227.61569 705.6138 227.87189 704.3132 227.99999 703 228H601C600.6021 227.99999 600.2194 227.92386 599.85189 227.77162 599.4843 227.61937 599.1599 227.4026 598.87869 227.1213 598.59738 226.83998 598.38058 226.51557 598.2283 226.14803 598.07608 225.78049 597.99996 225.39781 598 225Z" fill="#c1bdb7"/>
<path transform="matrix(.75,0,0,.75,0,0)" stroke-width="2" stroke-linecap="butt" stroke-miterlimit="4" stroke-linejoin="miter" fill="none" stroke="#646060" d="M601 223V27C601 26.734784 601.0507 26.47966 601.1522 26.23463 601.2537 25.989603 601.3982 25.773322 601.58578 25.585785 601.77328 25.398249 601.9895 25.253733 602.23458 25.152239 602.4796 25.050747 602.73477 25 603 25H718C718.2652 25 718.52029 25.050747 718.7653 25.152239 719.0104 25.253733 719.2266 25.398249 719.4142 25.585785 719.6017 25.773322 719.7462 25.989603 719.8477 26.23463 719.9492 26.47966 720 26.734784 720 27V206C720 207.24755 719.8783 208.48311 719.6349 209.7067 719.39157 210.93029 719.0311 212.11837 718.5537 213.27095 718.07626 214.42356 717.49099 215.5185 716.7979 216.5558 716.1048 217.59311 715.31716 218.55286 714.435 219.43502 713.55288 220.31717 712.59317 221.1048 711.55587 221.79792 710.5185 222.49102 709.4235 223.07627 708.27096 223.55368 707.11837 224.0311 705.9303 224.39151 704.7067 224.6349 703.48318 224.8783 702.2476 225 701 225H603C602.73477 224.99999 602.4796 224.94924 602.23458 224.84774 601.9895 224.74625 601.77328 224.60173 601.58578 224.4142 601.3982 224.22666 601.2537 224.01038 601.1522 223.76534 601.0507 223.52031 601 223.2652 601 223Z"/>
<path transform="matrix(.75,0,0,.75,0,0)" d="M606 30H716V180H606Z" fill="#3c9b66"/>
<path transform="matrix(.75,0,0,.75,0,0)" d="M605 202H683V222H605Z" fill="#646060"/>
<path transform="matrix(.75,0,0,.75,0,0)" d="M630 56H690V68H630Z" fill="#484848"/>
<path transform="matrix(.75,0,0,.75,0,0)" d="M619 101V41C618.99996 40.734785 619.05068 40.47966 619.15219 40.23463 619.25369 39.9896 619.3982 39.77332 619.58578 39.585786 619.77328 39.398248 619.9895 39.25373 620.23458 39.152238 620.4796 39.050748 620.7348 39 621 39H701C701.2652 39 701.52029 39.050748 701.7653 39.152238 702.0103 39.25373 702.2266 39.398248 702.4142 39.585786 702.6017 39.77332 702.74618 39.9896 702.84768 40.23463 702.94918 40.47966 702.99996 40.734785 703 41V101C702.99996 101.26521 702.94918 101.52033 702.84768 101.765369 702.74618 102.01038 702.6017 102.22667 702.4142 102.41421 702.2266 102.60174 702.0103 102.746257 701.7653 102.84775 701.52029 102.94924 701.2652 102.99999 701 103H621C620.7348 102.99999 620.4796 102.94924 620.23458 102.84775 619.9895 102.746257 619.77328 102.60174 619.58578 102.41421 619.3982 102.22667 619.25369 102.01038 619.15219 101.76536 619.05068 101.52033 618.99996 101.26521 619 101Z" fill="#dddddd"/>
<path transform="matrix(.75,0,0,.75,0,0)" d="M613 98H708V211H613Z" fill="#5eaf89"/>
<path transform="matrix(.75,0,0,.75,0,0)" d="M716 206C715.99996 206.98491 715.9039 207.96036 715.71176 208.92635 715.51956 209.89234 715.235 210.83029 714.8581 211.74024 714.4812 212.65018 714.01919 213.5146 713.472 214.33353 712.9248 215.15245 712.303 215.91014 711.60659 216.60659 710.9101 217.30301 710.1524 217.92482 709.3335 218.47202 708.5145 219.01921 707.6501 219.48125 706.7402 219.85816 705.8302 220.23508 704.8923 220.5196 703.9263 220.71176 702.9603 220.90392 701.9849 220.99999 701 221 700.0151 220.99999 699.03958 220.90392 698.07357 220.71176 697.10757 220.5196 696.1696 220.23508 695.25967 219.85816 694.34976 219.48125 693.4853 219.01921 692.6663 218.47202 691.8474 217.92482 691.0897 217.30301 690.3933 216.60659 689.69686 215.91014 689.075 215.15245 688.52786 214.33353 687.98068 213.5146 687.5186 212.65018 687.1417 211.74024 686.76486 210.83029 686.4803 209.89234 686.2881 208.92635 686.096 207.96036 685.99996 206.98491 686 206 685.99996 205.01509 686.096 204.03963 686.2881 203.07364 686.4803 202.10764 686.76486 201.16967 687.1417 200.25972 687.5186 199.34976 687.98068 198.48534 688.52786 197.66641 689.075 196.84749 689.69686 196.08982 690.3933 195.39337 691.0897 194.69693 691.8474 194.07512 692.6664 193.52793 693.4853 192.98075 694.34976 192.51869 695.25967 192.14179 696.1696 191.7649 697.10757 191.48036 698.07357 191.28821 699.03958 191.09609 700.0151 191.00002 701 191 701.9849 191.00002 702.9603 191.09609 703.92636 191.28823 704.8923 191.48038 705.8302 191.7649 706.7402 192.14179 707.6501 192.51869 708.5145 192.98075 709.3335 193.52793 710.1524 194.07512 710.9101 194.69693 711.60659 195.39337 712.303 196.08982 712.92477 196.84749 713.4719 197.6664 714.0191 198.48532 714.4812 199.34976 714.8581 200.25972 715.235 201.16967 715.51956 202.10764 715.71176 203.07364 715.9039 204.03963 715.99996 205.01509 716 206Z" fill="#646060"/>
</g>
<g clip-path="url(#clip_3)">
<g clip-path="url(#clip_4)">
<path transform="matrix(.75,0,0,.75,0,0)" d="M686 221V191H716V221H686ZM694 206C693.99996 205.54036 694.04476 205.08515 694.1344 204.63434 694.2241 204.18355 694.35696 203.74582 694.5328 203.32118 694.7087 202.89655 694.92428 202.49314 695.17959 202.11096 695.43496 201.7288 695.72518 201.37523 696.0502 201.05023 696.3752 200.72524 696.72879 200.43506 697.1109 200.17969 697.49307 199.92433 697.8964 199.70871 698.3211 199.53282 698.7457 199.35694 699.1835 199.22417 699.6343 199.13449 700.08517 199.04483 700.54037 199 701 199 701.4596 199 701.9148 199.04483 702.36557 199.13449 702.8163 199.22417 703.254 199.35695 703.6787 199.53284 704.10336 199.70873 704.5068 199.92435 704.8889 200.1797 705.27108 200.43506 705.6247 200.72524 705.9497 201.05023 706.2747 201.37523 706.5649 201.7288 706.8202 202.11096 707.0756 202.49314 707.29129 202.89655 707.4671 203.32118 707.643 203.74582 707.7758 204.18355 707.8655 204.63434 707.95516 205.08515 708 205.54036 708 206 708 206.45961 707.95516 206.91483 707.8655 207.36562 707.7758 207.8164 707.643 208.25414 707.4671 208.67877 707.29129 209.10341 707.0756 209.5068 706.8202 209.88898 706.5649 210.27115 706.2747 210.62474 705.9497 210.94974 705.6247 211.27474 705.27108 211.56493 704.8889 211.82028 704.5068 212.07563 704.10336 212.29125 703.6787 212.46714 703.254 212.64302 702.8163 212.7758 702.36557 212.86548 701.9148 212.95514 701.4596 212.99999 701 213 700.54037 212.99999 700.08517 212.95514 699.6343 212.86547 699.1835 212.77579 698.7457 212.643 698.3211 212.46712 697.8964 212.29123 697.493 212.07563 697.11087 211.82028 696.7287 211.56493 696.3752 211.27474 696.0502 210.94974 695.72518 210.62474 695.43496 210.27115 695.17959 209.88898 694.92428 209.5068 694.7087 209.10341 694.5328 208.67877 694.35696 208.25414 694.2241 207.8164 694.1344 207.36562 694.04476 206.91483 693.99996 206.45961 694 206Z" fill="#484848" fill-rule="evenodd"/>
</g>
</g>
<g clip-path="url(#clip_5)">
<path transform="matrix(.75,0,0,.75,0,0)" d="M643 169H665V191H643Z" fill="#484848"/>
<path transform="matrix(.75,0,0,.75,0,11.25)" d="M641 172H645V174H641Z" fill="#dddddd"/>
<path transform="matrix(.75,0,0,.75,0,9)" d="M641 172H645V174H641Z" fill="#dddddd"/>
<path transform="matrix(.75,0,0,.75,0,6.75)" d="M641 172H645V174H641Z" fill="#dddddd"/>
<path transform="matrix(.75,0,0,.75,0,4.5)" d="M641 172H645V174H641Z" fill="#dddddd"/>
<path transform="matrix(.75,0,0,.75,0,2.25)" d="M641 172H645V174H641Z" fill="#dddddd"/>
<path transform="matrix(.75,0,0,.75,0,0)" d="M641 172H645V174H641Z" fill="#dddddd"/>
<path transform="matrix(.75,0,0,.75,0,11.25)" d="M663 172H667V174H663Z" fill="#dddddd"/>
<path transform="matrix(.75,0,0,.75,0,9)" d="M663 172H667V174H663Z" fill="#dddddd"/>
<path transform="matrix(.75,0,0,.75,0,6.75)" d="M663 172H667V174H663Z" fill="#dddddd"/>
<path transform="matrix(.75,0,0,.75,0,4.5)" d="M663 172H667V174H663Z" fill="#dddddd"/>
<path transform="matrix(.75,0,0,.75,0,2.25)" d="M663 172H667V174H663Z" fill="#dddddd"/>
<path transform="matrix(.75,0,0,.75,0,0)" d="M663 172H667V174H663Z" fill="#dddddd"/>
</g>
<g clip-path="url(#clip_6)">
<g clip-path="url(#clip_7)">
<path transform="matrix(.75,0,0,.75,30,0)" d="M626 104C626 104.265209 625.9492 104.520328 625.8477 104.76536 625.7462 105.010379 625.6017 105.22666 625.4141 105.4142 625.22659 105.60174 625.0103 105.74625 624.7653 105.84774 624.52029 105.949237 624.26516 105.99999 624 106 623.73477 105.99999 623.4796 105.949237 623.23458 105.84773 622.98959 105.74625 622.7733 105.60174 622.58578 105.4142 622.3982 105.22666 622.25369 105.010379 622.15219 104.76536 622.05068 104.520328 621.99996 104.265209 622 104 621.99996 103.73478 622.05068 103.47966 622.15219 103.23463 622.25369 102.9896 622.3982 102.77332 622.58578 102.585788 622.7733 102.39825 622.98959 102.25373 623.23458 102.15224 623.4796 102.05074 623.73477 102 624 102 624.26516 102 624.52029 102.05074 624.7653 102.15224 625.0103 102.25373 625.22659 102.39825 625.4141 102.585788 625.6017 102.77332 625.7462 102.9896 625.8477 103.23462 625.9492 103.47965 626 103.73478 626 104Z" fill="#484848"/>
<path transform="matrix(.75,0,0,.75,24,0)" d="M626 104C626 104.265209 625.9492 104.520328 625.8477 104.76536 625.7462 105.010379 625.6017 105.22666 625.4141 105.4142 625.22659 105.60174 625.0103 105.74625 624.7653 105.84774 624.52029 105.949237 624.26516 105.99999 624 106 623.73477 105.99999 623.4796 105.949237 623.23458 105.84773 622.98959 105.74625 622.7733 105.60174 622.58578 105.4142 622.3982 105.22666 622.25369 105.010379 622.15219 104.76536 622.05068 104.520328 621.99996 104.265209 622 104 621.99996 103.73478 622.05068 103.47966 622.15219 103.23463 622.25369 102.9896 622.3982 102.77332 622.58578 102.585788 622.7733 102.39825 622.98959 102.25373 623.23458 102.15224 623.4796 102.05074 623.73477 102 624 102 624.26516 102 624.52029 102.05074 624.7653 102.15224 625.0103 102.25373 625.22659 102.39825 625.4141 102.585788 625.6017 102.77332 625.7462 102.9896 625.8477 103.23462 625.9492 103.47965 626 103.73478 626 104Z" fill="#484848"/>
<path transform="matrix(.75,0,0,.75,18,0)" d="M626 104C626 104.265209 625.9492 104.520328 625.8477 104.76536 625.7462 105.010379 625.6017 105.22666 625.4141 105.4142 625.22659 105.60174 625.0103 105.74625 624.7653 105.84774 624.52029 105.949237 624.26516 105.99999 624 106 623.73477 105.99999 623.4796 105.949237 623.23458 105.84773 622.98959 105.74625 622.7733 105.60174 622.58578 105.4142 622.3982 105.22666 622.25369 105.010379 622.15219 104.76536 622.05068 104.520328 621.99996 104.265209 622 104 621.99996 103.73478 622.05068 103.47966 622.15219 103.23463 622.25369 102.9896 622.3982 102.77332 622.58578 102.585788 622.7733 102.39825 622.98959 102.25373 623.23458 102.15224 623.4796 102.05074 623.73477 102 624 102 624.26516 102 624.52029 102.05074 624.7653 102.15224 625.0103 102.25373 625.22659 102.39825 625.4141 102.585788 625.6017 102.77332 625.7462 102.9896 625.8477 103.23462 625.9492 103.47965 626 103.73478 626 104Z" fill="#484848"/>
<path transform="matrix(.75,0,0,.75,12,0)" d="M626 104C626 104.265209 625.9492 104.520328 625.8477 104.76536 625.7462 105.010379 625.6017 105.22666 625.4141 105.4142 625.22659 105.60174 625.0103 105.74625 624.7653 105.84774 624.52029 105.949237 624.26516 105.99999 624 106 623.73477 105.99999 623.4796 105.949237 623.23458 105.84773 622.98959 105.74625 622.7733 105.60174 622.58578 105.4142 622.3982 105.22666 622.25369 105.010379 622.15219 104.76536 622.05068 104.520328 621.99996 104.265209 622 104 621.99996 103.73478 622.05068 103.47966 622.15219 103.23463 622.25369 102.9896 622.3982 102.77332 622.58578 102.585788 622.7733 102.39825 622.98959 102.25373 623.23458 102.15224 623.4796 102.05074 623.73477 102 624 102 624.26516 102 624.52029 102.05074 624.7653 102.15224 625.0103 102.25373 625.22659 102.39825 625.4141 102.585788 625.6017 102.77332 625.7462 102.9896 625.8477 103.23462 625.9492 103.47965 626 103.73478 626 104Z" fill="#484848"/>
<path transform="matrix(.75,0,0,.75,6,0)" d="M626 104C626 104.265209 625.9492 104.520328 625.8477 104.76536 625.7462 105.010379 625.6017 105.22666 625.4141 105.4142 625.22659 105.60174 625.0103 105.74625 624.7653 105.84774 624.52029 105.949237 624.26516 105.99999 624 106 623.73477 105.99999 623.4796 105.949237 623.23458 105.84773 622.98959 105.74625 622.7733 105.60174 622.58578 105.4142 622.3982 105.22666 622.25369 105.010379 622.15219 104.76536 622.05068 104.520328 621.99996 104.265209 622 104 621.99996 103.73478 622.05068 103.47966 622.15219 103.23463 622.25369 102.9896 622.3982 102.77332 622.58578 102.585788 622.7733 102.39825 622.98959 102.25373 623.23458 102.15224 623.4796 102.05074 623.73477 102 624 102 624.26516 102 624.52029 102.05074 624.7653 102.15224 625.0103 102.25373 625.22659 102.39825 625.4141 102.585788 625.6017 102.77332 625.7462 102.9896 625.8477 103.23462 625.9492 103.47965 626 103.73478 626 104Z" fill="#484848"/>
</g>
</g>
<g clip-path="url(#clip_8)">
<path transform="matrix(.75,0,0,.75,0,0)" d="M626 104C626 104.265209 625.9492 104.520328 625.8477 104.76536 625.7462 105.010379 625.6017 105.22666 625.4141 105.4142 625.22659 105.60174 625.0103 105.74625 624.7653 105.84774 624.52029 105.949237 624.26516 105.99999 624 106 623.73477 105.99999 623.4796 105.949237 623.23458 105.84773 622.98959 105.74625 622.7733 105.60174 622.58578 105.4142 622.3982 105.22666 622.25369 105.010379 622.15219 104.76536 622.05068 104.520328 621.99996 104.265209 622 104 621.99996 103.73478 622.05068 103.47966 622.15219 103.23463 622.25369 102.9896 622.3982 102.77332 622.58578 102.585788 622.7733 102.39825 622.98959 102.25373 623.23458 102.15224 623.4796 102.05074 623.73477 102 624 102 624.26516 102 624.52029 102.05074 624.7653 102.15224 625.0103 102.25373 625.22659 102.39825 625.4141 102.585788 625.6017 102.77332 625.7462 102.9896 625.8477 103.23462 625.9492 103.47965 626 103.73478 626 104Z" fill="#484848"/>
<path transform="matrix(.75,0,0,.75,0,0)" d="M706 51H716V61H706Z" fill="#645d5f"/>
<path transform="matrix(.75,0,0,.75,0,0)" d="M724 56C723.99996 56.525289 723.9486 57.045526 723.8461 57.56072 723.74368 58.075914 723.59188 58.57616 723.39089 59.061464 723.1899 59.546766 722.9434 60.007795 722.6516 60.444559 722.3598 60.88132 722.0282 61.28542 721.6568 61.656854 721.28536 62.028287 720.8812 62.359918 720.44448 62.651754 720.0077 62.943586 719.54666 63.19001 719.06137 63.39103 718.57608 63.59205 718.0758 63.743799 717.56069 63.846277 717.0455 63.948755 716.52529 63.999998 716 64 715.4747 63.999998 714.9544 63.948755 714.4392 63.84627 713.924 63.743799 713.4237 63.59205 712.9384 63.39103 712.4531 63.19001 711.9921 62.943586 711.55538 62.651754 711.1185 62.359918 710.7145 62.028287 710.3431 61.656854 709.9716 61.28542 709.63998 60.88132 709.34817 60.444559 709.0563 60.007795 708.8099 59.546766 708.6089 59.061464 708.4079 58.57616 708.25619 58.075914 708.1537 57.56072 708.0512 57.045526 708 56.525289 708 56 708 55.474714 708.0512 54.954469 708.1537 54.439275 708.25619 53.924077 708.4079 53.423826 708.6089 52.938524 708.8099 52.45322 709.0563 51.99219 709.3481 51.55543 709.63998 51.118677 709.9716 50.714578 710.3431 50.343145 710.7145 49.971708 711.1185 49.64007 711.55538 49.34824 711.9921 49.056406 712.4531 48.80998 712.9384 48.60896 713.4237 48.407945 713.924 48.256196 714.4392 48.153715 714.9544 48.05124 715.4747 48 716 48 716.52529 48 717.0455 48.05124 717.56069 48.153718 718.0758 48.256196 718.57608 48.407945 719.06137 48.60896 719.54666 48.80998 720.0077 49.056406 720.44448 49.34824 720.8812 49.64007 721.28536 49.971708 721.6568 50.343145 722.0282 50.714578 722.3598 51.118677 722.6516 51.55543 722.9435 51.992197 723.18997 52.453226 723.3909 52.938528 723.5919 53.42383 723.7437 53.924077 723.8462 54.439275 723.94869 54.954469 723.99996 55.474714 724 56Z" fill="#b2aea9"/>
</g>
<g clip-path="url(#clip_9)">
<g clip-path="url(#clip_10)">
<path transform="matrix(.75,0,0,.75,0,0)" d="M708 64V48H724V64H708ZM713 56C712.99996 55.602174 713.07608 55.219488 713.2283 54.851945 713.38058 54.4844 713.5973 54.159978 713.8786 53.878675 714.1599 53.597368 714.4843 53.380598 714.85189 53.228357 715.21939 53.07612 715.6021 53 716 53 716.39779 53 716.78048 53.07612 717.14797 53.22836 717.5155 53.380598 717.83999 53.597368 718.1213 53.878675 718.4025 54.159978 718.61929 54.4844 718.77157 54.851945 718.92379 55.219488 718.99996 55.602174 719 56 718.99996 56.39782 718.92379 56.7805 718.77157 57.14804 718.61929 57.515584 718.4025 57.840009 718.1213 58.121316 717.83999 58.402616 717.5155 58.61939 717.14797 58.771635 716.78048 58.923875 716.39779 58.999998 716 59 715.6021 58.999998 715.21939 58.923875 714.85189 58.771635 714.4843 58.61939 714.1599 58.402616 713.8786 58.121316 713.5973 57.840009 713.38058 57.515588 713.2283 57.148046 713.07608 56.780504 712.99996 56.39782 713 56Z" fill="#dddddd" fill-rule="evenodd"/>
</g>
</g>
<g clip-path="url(#clip_11)">
<path transform="matrix(.75,0,0,.75,0,0)" d="M642 163C641.99996 164.18189 641.88467 165.35242 641.6541 166.5116 641.42349 167.67079 641.08206 168.79634 640.6297 169.88828 640.17739 170.98021 639.6229 172.01753 638.9663 173.00025 638.3097 173.98296 637.56356 174.89217 636.72787 175.7279 635.8921 176.56362 634.9829 177.30979 634.0002 177.9664 633.01748 178.62305 631.98019 179.1775 630.88827 179.62979 629.7963 180.08209 628.6708 180.42354 627.5116 180.65412 626.3524 180.88469 625.1819 180.99999 624 181 622.8181 180.99999 621.6476 180.88468 620.48837 180.6541 619.32919 180.42353 618.2036 180.08209 617.11166 179.62979 616.0197 179.1775 614.98239 178.62305 613.99966 177.96642 613.01699 177.30979 612.1078 176.56362 611.27206 175.7279 610.4363 174.89217 609.6901 173.98296 609.0335 173.00025 608.37686 172.01753 607.8224 170.98021 607.37008 169.88828 606.9177 168.79634 606.57638 167.67079 606.3458 166.5116 606.11526 165.35242 605.99996 164.18189 606 163 605.99996 161.8181 606.11526 160.64756 606.3458 159.48836 606.57638 158.32917 606.9177 157.2036 607.37008 156.11168 607.8224 155.01975 608.37686 153.98242 609.03347 152.99971 609.6901 152.017 610.4363 151.10779 611.27206 150.27207 612.1078 149.43633 613.01699 148.69016 613.99966 148.03354 614.98239 147.3769 616.0197 146.82245 617.11166 146.37017 618.2036 145.91788 619.32919 145.57645 620.48837 145.34587 621.6476 145.1153 622.8181 145 624 145 625.1819 145 626.3524 145.1153 627.5116 145.34587 628.6708 145.57645 629.7963 145.91788 630.88827 146.37017 631.98019 146.82245 633.01748 147.3769 634.0002 148.03354 634.9829 148.69016 635.8921 149.43633 636.72787 150.27207 637.56356 151.10779 638.3097 152.01702 638.9663 152.99973 639.6229 153.98244 640.17739 155.01975 640.6297 156.11168 641.08206 157.2036 641.42349 158.32917 641.6541 159.48836 641.88467 160.64756 641.99996 161.8181 642 163Z" fill="#dddddd"/>
<path transform="matrix(-.70476946,.25651513,-.25651513,-.70476946,540.19088,122.839588)" d="M0 11C0 10.277729 .07045396 9.562397 .21136187 8.854005 .35226978 8.145614 .5609242 7.4577724 .837325 6.7904818 1.1137257 6.123191 1.4525621 5.4892728 1.853834 4.8887269 2.2551058 4.2881815 2.7111028 3.7325474 3.2218252 3.2218252 3.7325474 2.7111028 4.2881815 2.2551058 4.8887269 1.853834 5.4892728 1.4525621 6.123191 1.1137257 6.7904818 .837325 7.4577724 .5609242 8.145614 .35226978 8.854005 .21136187 9.562397 .07045396 10.277729 0 11 0H39C39.722269 0 40.437597 .07045396 41.14599 .21136187 41.85438 .35226978 42.54222 .5609242 43.209516 .837325 43.876806 1.1137257 44.510725 1.4525621 45.111268 1.853834 45.71181 2.2551058 46.26745 2.7111028 46.77817 3.2218252 47.288896 3.7325474 47.74489 4.2881815 48.14616 4.8887269 48.547433 5.4892728 48.88627 6.123191 49.16267 6.7904818 49.43907 7.4577724 49.647726 8.145614 49.78863 8.854005 49.929544 9.562397 49.999998 10.277729 50 11 49.999998 11.72227 49.929544 12.437601 49.78863 13.145993 49.64772 13.854385 49.439069 14.542226 49.162668 15.209517 48.886266 15.876806 48.54743 16.510725 48.146158 17.11127 47.74489 17.711817 47.288896 18.26745 46.77817 18.778174 46.26745 19.288895 45.71181 19.744893 45.111268 20.146164 44.510725 20.547434 43.876806 20.88627 43.209516 21.162672 42.54222 21.439072 41.85438 21.647728 41.14599 21.788638 40.437597 21.929545 39.722269 21.999999 39 22H11C10.277729 21.999999 9.562397 21.929545 8.854005 21.788638 8.145614 21.647728 7.4577724 21.439072 6.7904818 21.162672 6.123191 20.88627 5.4892728 20.547434 4.8887269 20.146164 4.2881815 19.744893 3.7325474 19.288895 3.2218252 18.778174 2.7111028 18.26745 2.2551058 17.711817 1.853834 17.11127 1.4525621 16.510725 1.1137257 15.876806 .837325 15.209516 .5609242 14.542225 .35226978 13.854384 .21136187 13.145992 .07045396 12.437601 0 11.72227 0 11Z" fill="#dddddd"/>
</g>
<g clip-path="url(#clip_12)">
<g clip-path="url(#clip_13)">
<path transform="matrix(-.70476946,.25651513,-.25651513,-.70476946,540.19088,122.839588)" d="M0 22V0H50V22H0ZM2 11C1.9999999 10.409051 2.057644 9.82378 2.1729325 9.244186 2.2882205 8.664593 2.4589377 8.101813 2.6850839 7.555848 2.9112304 7.009883 3.18846 6.491223 3.5167733 5.9998676 3.8450864 5.508512 4.218175 5.053902 4.636039 4.636039 5.053902 4.218175 5.508512 3.8450866 5.9998676 3.5167735 6.491223 3.18846 7.009883 2.9112304 7.555848 2.685084 8.101813 2.458938 8.664593 2.2882207 9.244186 2.1729325 9.82378 2.0576442 10.409051 2 11 2H39C39.590948 2 40.176218 2.0576442 40.75581 2.1729327 41.3354 2.2882207 41.89818 2.458938 42.44414 2.685084 42.990106 2.9112304 43.508764 3.18846 44.000123 3.5167733 44.491479 3.8450864 44.94609 4.218175 45.363958 4.636039 45.781824 5.053902 46.154909 5.508512 46.48322 5.9998676 46.81153 6.491223 47.08876 7.009883 47.314908 7.555848 47.541055 8.101813 47.71177 8.664593 47.82706 9.244186 47.94235 9.82378 47.999998 10.409051 48 11 47.999998 11.590948 47.94235 12.176219 47.82706 12.755812 47.71177 13.335406 47.541055 13.898186 47.314908 14.44415 47.08876 14.990115 46.81153 15.508776 46.48322 16.000132 46.154909 16.491486 45.781824 16.946097 45.363958 17.36396 44.94609 17.781825 44.491479 18.154913 44.000123 18.483225 43.508764 18.811539 42.990106 19.088768 42.44414 19.314913 41.89818 19.54106 41.3354 19.711777 40.75581 19.827065 40.176218 19.942355 39.590948 19.999999 39 20H11C10.409051 19.999999 9.82378 19.942355 9.244186 19.827065 8.664593 19.711777 8.101813 19.54106 7.555848 19.314913 7.009883 19.088768 6.491223 18.811539 5.9998676 18.483225 5.508512 18.154913 5.053902 17.781825 4.636039 17.36396 4.218175 16.946097 3.8450864 16.491486 3.5167733 16.00013 3.18846 15.508775 2.9112304 14.990115 2.6850839 14.44415 2.4589377 13.898186 2.2882205 13.335406 2.1729325 12.755812 2.057644 12.176219 1.9999999 11.590948 2 11Z" fill="#a9a9a9" fill-rule="evenodd"/>
</g>
</g>
<g clip-path="url(#clip_14)">
<path transform="matrix(.75,0,0,.75,0,0)" d="M643 192H683V202H643Z" fill="#dddddd"/>
<path transform="matrix(.75,0,0,.75,0,0)" d="M604 78H616V90H604Z" fill="#646060"/>
<path transform="matrix(.75,0,0,.75,0,0)" d="M613 84C612.99996 84.45962 612.9551 84.914829 612.8654 85.36562 612.77578 85.816417 612.643 86.25413 612.4671 86.678768 612.2912 87.10341 612.07559 87.506809 611.82028 87.88897 611.5648 88.27113 611.27468 88.624729 610.9497 88.94974 610.6247 89.27474 610.2711 89.56492 609.889 89.82027 609.5068 90.07563 609.10336 90.29125 608.6787 90.46715 608.2541 90.643039 607.81637 90.77582 607.36557 90.865489 606.9148 90.955158 606.4596 90.99999 606 91 605.54037 90.99999 605.08517 90.955158 604.6343 90.865489 604.1835 90.77582 603.7457 90.643039 603.3211 90.46714 602.8964 90.291248 602.493 90.07562 602.11087 89.82027 601.7287 89.56492 601.3751 89.27474 601.0502 88.94974 600.72518 88.624729 600.435 88.27114 600.17959 87.88898 599.92428 87.50681 599.7086 87.10341 599.5328 86.678768 599.35696 86.25413 599.2241 85.816417 599.13449 85.36562 599.0448 84.914829 599 84.45962 599 84 599 83.54037 599.0448 83.08516 599.13449 82.63436 599.2241 82.18356 599.35696 81.74584 599.5328 81.321208 599.7086 80.89657 599.92428 80.493167 600.17959 80.11099 600.435 79.72883 600.72518 79.37525 601.0502 79.05025 601.3751 78.725238 601.7287 78.43505 602.11087 78.1797 602.493 77.924358 602.8964 77.70873 603.3211 77.53284 603.7457 77.35695 604.1835 77.224178 604.6343 77.13451 605.08517 77.04484 605.54037 77.00001 606 77 606.4596 77.00001 606.9148 77.04484 607.36557 77.13451 607.81637 77.224178 608.2541 77.35695 608.6787 77.53284 609.10336 77.70873 609.5068 77.924358 609.889 78.1797 610.2711 78.43505 610.6247 78.725238 610.9497 79.05025 611.27468 79.37525 611.5648 79.728839 611.82028 80.111 612.07559 80.493167 612.2912 80.89657 612.4671 81.321208 612.643 81.74584 612.77578 82.18356 612.8654 82.63436 612.9551 83.08516 612.99996 83.54037 613 84Z" fill="#494949"/>
<path transform="matrix(.75,0,0,.75,0,0)" d="M604 22H619V31H604Z" fill="#494949"/>
<path transform="matrix(.75,0,0,.75,0,0)" d="M613 26V22C612.99996 21.734782 613.10147 21.479659 613.3044 21.23463 613.5074 20.989603 613.79647 20.773322 614.1715 20.585785 614.5465 20.398249 614.97909 20.253733 615.4692 20.152239 615.9592 20.050747 616.46957 20 617 20 617.5304 20 618.0406 20.050747 618.53067 20.152239 619.0207 20.253733 619.4533 20.398249 619.82839 20.585785 620.2034 20.773322 620.49246 20.989603 620.69546 21.23463 620.89846 21.479659 620.99996 21.734782 621 22V26H613Z" fill="#494949"/>
<path transform="matrix(.75,0,0,.75,0,0)" d="M598 225V25C597.99996 24.602173 598.07608 24.219489 598.2283 23.851946 598.38058 23.484406 598.59738 23.159983 598.87869 22.87868 599.1599 22.597374 599.4843 22.3806 599.85189 22.22836 600.2194 22.07612 600.6021 22 601 22H720C720.39779 22 720.78048 22.07612 721.148 22.22836 721.5155 22.3806 721.8399 22.597374 722.1213 22.87868 722.4026 23.159983 722.6193 23.484406 722.77157 23.851948 722.92379 24.219489 722.99996 24.602173 723 25V208C722.99996 209.31322 722.8718 210.61382 722.61569 211.9018 722.35946 213.18978 721.98007 214.44039 721.4775 215.65364 720.975 216.8669 720.3589 218.01947 719.6293 219.11136 718.8997 220.20328 718.0706 221.21353 717.1421 222.14212 716.21347 223.07071 715.2032 223.8998 714.11129 224.62937 713.01937 225.35895 711.86679 225.975 710.65359 226.47756 709.4403 226.9801 708.1897 227.35948 706.90176 227.61569 705.6138 227.87189 704.3132 227.99999 703 228H601C600.6021 227.99999 600.2194 227.92386 599.85189 227.77162 599.4843 227.61937 599.1599 227.4026 598.87869 227.1213 598.59738 226.83998 598.38058 226.51557 598.2283 226.14803 598.07608 225.78049 597.99996 225.39781 598 225Z" fill="#5b3099" fill-opacity=".502"/>
<path transform="matrix(.75,0,0,.75,0,0)" d="M606 124V36C605.99996 35.469564 606.10147 34.959318 606.30447 34.46926 606.5074 33.979207 606.79647 33.546644 607.1715 33.171575 607.5466 32.796499 607.9791 32.507467 608.46926 32.30448 608.9593 32.101495 609.46957 32 610 32H712C712.5304 32 713.0406 32.101495 713.53067 32.30448 714.0207 32.507467 714.4533 32.796499 714.82839 33.171575 715.2034 33.546644 715.4925 33.979207 715.69546 34.46926 715.89846 34.959318 715.99996 35.469564 716 36V118C715.99996 118.65661 715.9359 119.30691 715.8078 119.9509 715.6797 120.59489 715.49 121.22019 715.2387 121.82681 714.9874 122.43345 714.67947 123.009738 714.31466 123.55568 713.9498 124.10163 713.53536 124.60676 713.07107 125.07106 712.60678 125.53535 712.1016 125.94989 711.55569 126.31468 711.0097 126.679477 710.4334 126.98751 709.8268 127.238788 709.22018 127.49006 708.5948 127.67974 707.9508 127.80784 707.3068 127.935939 706.65658 127.99999 706 128H610C609.46957 127.99999 608.9593 127.89849 608.46926 127.6955 607.9791 127.49251 607.5466 127.20348 607.1715 126.82842 606.79647 126.45335 606.5074 126.02078 606.30447 125.53072 606.10147 125.040668 605.99996 124.530429 606 124Z" fill="#494949"/>
<path transform="matrix(.75,0,0,.75,0,0)" d="M620 114V44C620 43.73478 620.0507 43.479658 620.1522 43.234628 620.2537 42.989599 620.3982 42.77332 620.58578 42.585786 620.77328 42.398248 620.9895 42.25373 621.23458 42.152238 621.4796 42.050748 621.73477 42 622 42H698C698.2652 42 698.52029 42.050748 698.76528 42.152238 699.01028 42.25373 699.22659 42.398248 699.4142 42.585786 699.6017 42.77332 699.74618 42.989599 699.84768 43.234628 699.94918 43.479658 699.99996 43.73478 700 44V114C699.99996 114.265209 699.94918 114.52032 699.84768 114.76535 699.74618 115.010379 699.6017 115.22666 699.4142 115.41421 699.22659 115.60174 699.01028 115.74625 698.76528 115.84774 698.52029 115.949237 698.2652 115.99999 698 116H622C621.73477 115.99999 621.4796 115.949237 621.23458 115.84774 620.9895 115.74625 620.77328 115.60174 620.58578 115.41421 620.3982 115.22666 620.2537 115.010379 620.1522 114.76535 620.0507 114.52032 620 114.265209 620 114Z" fill="#b7b28f"/>
<path transform="matrix(.75,0,0,.75,0,0)" d="M609 167V159C609 158.72385 609.0976 158.48815 609.29287 158.29288 609.4881 158.09763 609.7238 158 610 158H638C638.27609 158 638.5118 158.09763 638.70706 158.29288 638.9023 158.48815 638.99996 158.72385 639 159V167C638.99996 167.27614 638.9023 167.51184 638.70706 167.7071 638.5118 167.90238 638.27609 168 638 168H610C609.7238 168 609.4881 167.90238 609.29287 167.7071 609.0976 167.51184 609 167.27614 609 167Z" fill="#484848"/>
<path transform="matrix(0,.75,-.75,0,471.75,111)" d="M0 9V1C0 .7238576 .09763107 .48815535 .2928932 .2928932 .48815535 .09763107 .7238576 0 1 0H29C29.27614 0 29.511843 .09763107 29.707106 .2928932 29.902367 .48815535 29.999999 .7238576 30 1V9C29.999999 9.276142 29.902367 9.511845 29.707106 9.707107 29.511843 9.902369 29.27614 9.999999 29 10H1C.7238576 9.999999 .48815535 9.902369 .2928932 9.707107 .09763107 9.511845 0 9.276142 0 9Z" fill="#484848"/>
</g>
<g clip-path="url(#clip_15)">
<g clip-path="url(#clip_16)">
<path transform="matrix(.75,0,0,.75,15,0)" d="M646 197C645.99996 196.73477 646.05068 196.47965 646.15219 196.2346 646.25369 195.98957 646.3982 195.77329 646.58578 195.58577 646.7733 195.39823 646.98959 195.25371 647.23458 195.15222 647.4796 195.05074 647.73477 195 648 195H658C658.26516 195 658.5202 195.05074 658.76528 195.1522 659.01028 195.25371 659.22659 195.39823 659.4141 195.58577 659.6016 195.77329 659.74618 195.98957 659.84768 196.2346 659.94918 196.47965 659.99996 196.73477 660 197 659.99996 197.2652 659.94918 197.52031 659.84768 197.76534 659.74618 198.01036 659.6016 198.22664 659.4141 198.41419 659.22659 198.60172 659.01028 198.74623 658.76528 198.84774 658.5202 198.94924 658.26516 198.99999 658 199H648C647.73477 198.99999 647.4796 198.94924 647.23458 198.84774 646.98959 198.74623 646.7733 198.60172 646.58578 198.41419 646.3982 198.22664 646.25369 198.01036 646.15219 197.76534 646.05068 197.52031 645.99996 197.2652 646 197Z" fill="#a9a8a6"/>
<path transform="matrix(.75,0,0,.75,15,0)" d="M646 197C645.99996 196.73477 646.05068 196.47965 646.15219 196.2346 646.25369 195.98957 646.3982 195.77329 646.58578 195.58577 646.7733 195.39823 646.98959 195.25371 647.23458 195.15222 647.4796 195.05074 647.73477 195 648 195H658C658.26516 195 658.5202 195.05074 658.76528 195.1522 659.01028 195.25371 659.22659 195.39823 659.4141 195.58577 659.6016 195.77329 659.74618 195.98957 659.84768 196.2346 659.94918 196.47965 659.99996 196.73477 660 197 659.99996 197.2652 659.94918 197.52031 659.84768 197.76534 659.74618 198.01036 659.6016 198.22664 659.4141 198.41419 659.22659 198.60172 659.01028 198.74623 658.76528 198.84774 658.5202 198.94924 658.26516 198.99999 658 199H648C647.73477 198.99999 647.4796 198.94924 647.23458 198.84774 646.98959 198.74623 646.7733 198.60172 646.58578 198.41419 646.3982 198.22664 646.25369 198.01036 646.15219 197.76534 646.05068 197.52031 645.99996 197.2652 646 197Z" fill="#484848"/>
</g>
</g>
<g clip-path="url(#clip_17)">
<path transform="matrix(.75,0,0,.75,0,0)" d="M646 197C645.99996 196.73477 646.05068 196.47965 646.15219 196.2346 646.25369 195.98957 646.3982 195.77329 646.58578 195.58577 646.7733 195.39823 646.98959 195.25371 647.23458 195.15222 647.4796 195.05074 647.73477 195 648 195H658C658.26516 195 658.5202 195.05074 658.76528 195.1522 659.01028 195.25371 659.22659 195.39823 659.4141 195.58577 659.6016 195.77329 659.74618 195.98957 659.84768 196.2346 659.94918 196.47965 659.99996 196.73477 660 197 659.99996 197.2652 659.94918 197.52031 659.84768 197.76534 659.74618 198.01036 659.6016 198.22664 659.4141 198.41419 659.22659 198.60172 659.01028 198.74623 658.76528 198.84774 658.5202 198.94924 658.26516 198.99999 658 199H648C647.73477 198.99999 647.4796 198.94924 647.23458 198.84774 646.98959 198.74623 646.7733 198.60172 646.58578 198.41419 646.3982 198.22664 646.25369 198.01036 646.15219 197.76534 646.05068 197.52031 645.99996 197.2652 646 197Z" fill="#484848"/>
</g>
<g clip-path="url(#clip_18)">
<g clip-path="url(#clip_19)">
<path transform="matrix(.75,0,0,.75,19.5,-7.5)" d="M688 167C688 167.52529 687.9487 168.04552 687.84628 168.5607 687.7437 169.0759 687.592 169.57614 687.391 170.06145 687.19 170.54676 686.94357 171.00778 686.65176 171.44454 686.3599 171.8813 686.0283 172.2854 685.65689 172.65685 685.28536 173.02828 684.8812 173.35991 684.44448 173.65174 684.0077 173.94356 683.5467 174.18997 683.0614 174.391 682.5761 174.59203 682.07589 174.74378 681.56069 174.84627 681.0455 174.94875 680.52529 174.99999 680 175 679.47476 174.99999 678.95449 174.94875 678.4393 174.84626 677.9241 174.74378 677.42379 174.59203 676.9385 174.391 676.4532 174.18997 675.9921 173.94356 675.55538 173.65174 675.11868 173.35991 674.71456 173.02828 674.34317 172.65685 673.9717 172.2854 673.64 171.8813 673.3482 171.44454 673.0564 171.00778 672.80996 170.54676 672.6089 170.06145 672.4079 169.57614 672.2561 169.0759 672.1536 168.5607 672.05117 168.04552 671.99996 167.52529 672 167 671.99996 166.47472 672.05117 165.95447 672.1536 165.43929 672.2561 164.92407 672.4079 164.42383 672.6089 163.93854 672.80996 163.45323 673.0564 162.99219 673.3482 162.55544 673.64 162.11867 673.9717 161.71457 674.34317 161.34314 674.71456 160.9717 675.11868 160.64006 675.55538 160.34824 675.9921 160.0564 676.4532 159.80997 676.9385 159.60895 677.42379 159.40795 677.9241 159.2562 678.4393 159.1537 678.95449 159.05124 679.47476 159.00002 680 159 680.52529 159.00002 681.0455 159.05124 681.56069 159.1537 682.07589 159.2562 682.5761 159.40795 683.0614 159.60895 683.5467 159.80997 684.0077 160.0564 684.44448 160.34824 684.8812 160.64006 685.28536 160.9717 685.65689 161.34314 686.0283 161.71457 686.3599 162.11867 686.65176 162.55544 686.94357 162.99219 687.19 163.45323 687.391 163.93854 687.592 164.42383 687.7437 164.92407 687.84628 165.43929 687.9487 165.95447 688 166.47472 688 167Z" fill="#484848"/>
</g>
</g>
<g clip-path="url(#clip_20)">
<path transform="matrix(.75,0,0,.75,0,0)" d="M688 167C688 167.52529 687.9487 168.04552 687.84628 168.5607 687.7437 169.0759 687.592 169.57614 687.391 170.06145 687.19 170.54676 686.94357 171.00778 686.65176 171.44454 686.3599 171.8813 686.0283 172.2854 685.65689 172.65685 685.28536 173.02828 684.8812 173.35991 684.44448 173.65174 684.0077 173.94356 683.5467 174.18997 683.0614 174.391 682.5761 174.59203 682.07589 174.74378 681.56069 174.84627 681.0455 174.94875 680.52529 174.99999 680 175 679.47476 174.99999 678.95449 174.94875 678.4393 174.84626 677.9241 174.74378 677.42379 174.59203 676.9385 174.391 676.4532 174.18997 675.9921 173.94356 675.55538 173.65174 675.11868 173.35991 674.71456 173.02828 674.34317 172.65685 673.9717 172.2854 673.64 171.8813 673.3482 171.44454 673.0564 171.00778 672.80996 170.54676 672.6089 170.06145 672.4079 169.57614 672.2561 169.0759 672.1536 168.5607 672.05117 168.04552 671.99996 167.52529 672 167 671.99996 166.47472 672.05117 165.95447 672.1536 165.43929 672.2561 164.92407 672.4079 164.42383 672.6089 163.93854 672.80996 163.45323 673.0564 162.99219 673.3482 162.55544 673.64 162.11867 673.9717 161.71457 674.34317 161.34314 674.71456 160.9717 675.11868 160.64006 675.55538 160.34824 675.9921 160.0564 676.4532 159.80997 676.9385 159.60895 677.42379 159.40795 677.9241 159.2562 678.4393 159.1537 678.95449 159.05124 679.47476 159.00002 680 159 680.52529 159.00002 681.0455 159.05124 681.56069 159.1537 682.07589 159.2562 682.5761 159.40795 683.0614 159.60895 683.5467 159.80997 684.0077 160.0564 684.44448 160.34824 684.8812 160.64006 685.28536 160.9717 685.65689 161.34314 686.0283 161.71457 686.3599 162.11867 686.65176 162.55544 686.94357 162.99219 687.19 163.45323 687.391 163.93854 687.592 164.42383 687.7437 164.92407 687.84628 165.43929 687.9487 165.95447 688 166.47472 688 167Z" fill="#484848"/>
<path transform="matrix(.75,0,0,.75,0,0)" d="M612 56C611.99996 56.265214 611.94918 56.520334 611.84768 56.765359 611.74618 57.010389 611.6016 57.22667 611.4141 57.414209 611.22659 57.60174 611.0103 57.746259 610.76528 57.84775 610.5202 57.949247 610.26516 57.999998 610 58 609.7347 57.999998 609.47958 57.949247 609.23458 57.84775 608.9895 57.746259 608.77328 57.60174 608.58578 57.414209 608.3982 57.22667 608.25369 57.010389 608.15219 56.765359 608.05068 56.520334 607.99996 56.265214 608 56 607.99996 55.734777 608.05068 55.479654 608.15219 55.234624 608.25369 54.989595 608.3982 54.773317 608.58578 54.58578 608.77328 54.398248 608.9895 54.25373 609.23458 54.152238 609.47958 54.050748 609.7347 54 610 54 610.26516 54 610.5202 54.050748 610.76528 54.152238 611.0103 54.25373 611.22659 54.398248 611.4141 54.58578 611.6016 54.773317 611.74618 54.989595 611.84768 55.234624 611.94918 55.479654 611.99996 55.734777 612 56Z" fill="#ff0000"/>
</g>
<g clip-path="url(#clip_21)">
<g clip-path="url(#clip_22)">
<path transform="matrix(.75,0,0,.75,13.5,0)" d="M697 206C696.99996 206.2652 696.94918 206.52031 696.84768 206.76534 696.74618 207.01036 696.6017 207.22664 696.4141 207.41419 696.22659 207.60172 696.0103 207.74623 695.7653 207.84774 695.52029 207.94922 695.26516 207.99999 695 208 694.73477 207.99999 694.4796 207.94922 694.23458 207.84774 693.98959 207.74623 693.7733 207.60172 693.58578 207.41419 693.3982 207.22664 693.25369 207.01036 693.15219 206.76534 693.05068 206.52031 692.99996 206.2652 693 206 692.99996 205.73479 693.05068 205.47966 693.15219 205.23462 693.25369 204.98958 693.3982 204.7733 693.58578 204.58577 693.7733 204.39823 693.98959 204.25371 694.23458 204.15222 694.4796 204.05074 694.73477 204 695 204 695.26516 204 695.52029 204.05074 695.7653 204.15222 696.0103 204.25371 696.22659 204.39823 696.4141 204.58577 696.6017 204.7733 696.74618 204.98958 696.84768 205.23462 696.94918 205.47966 696.99996 205.73479 697 206Z" fill="#555555"/>
<path transform="matrix(.75,0,0,.75,11.25,2.25)" d="M697 206C696.99996 206.2652 696.94918 206.52031 696.84768 206.76534 696.74618 207.01036 696.6017 207.22664 696.4141 207.41419 696.22659 207.60172 696.0103 207.74623 695.7653 207.84774 695.52029 207.94922 695.26516 207.99999 695 208 694.73477 207.99999 694.4796 207.94922 694.23458 207.84774 693.98959 207.74623 693.7733 207.60172 693.58578 207.41419 693.3982 207.22664 693.25369 207.01036 693.15219 206.76534 693.05068 206.52031 692.99996 206.2652 693 206 692.99996 205.73479 693.05068 205.47966 693.15219 205.23462 693.25369 204.98958 693.3982 204.7733 693.58578 204.58577 693.7733 204.39823 693.98959 204.25371 694.23458 204.15222 694.4796 204.05074 694.73477 204 695 204 695.26516 204 695.52029 204.05074 695.7653 204.15222 696.0103 204.25371 696.22659 204.39823 696.4141 204.58577 696.6017 204.7733 696.74618 204.98958 696.84768 205.23462 696.94918 205.47966 696.99996 205.73479 697 206Z" fill="#555555"/>
<path transform="matrix(.75,0,0,.75,9,4.5)" d="M697 206C696.99996 206.2652 696.94918 206.52031 696.84768 206.76534 696.74618 207.01036 696.6017 207.22664 696.4141 207.41419 696.22659 207.60172 696.0103 207.74623 695.7653 207.84774 695.52029 207.94922 695.26516 207.99999 695 208 694.73477 207.99999 694.4796 207.94922 694.23458 207.84774 693.98959 207.74623 693.7733 207.60172 693.58578 207.41419 693.3982 207.22664 693.25369 207.01036 693.15219 206.76534 693.05068 206.52031 692.99996 206.2652 693 206 692.99996 205.73479 693.05068 205.47966 693.15219 205.23462 693.25369 204.98958 693.3982 204.7733 693.58578 204.58577 693.7733 204.39823 693.98959 204.25371 694.23458 204.15222 694.4796 204.05074 694.73477 204 695 204 695.26516 204 695.52029 204.05074 695.7653 204.15222 696.0103 204.25371 696.22659 204.39823 696.4141 204.58577 696.6017 204.7733 696.74618 204.98958 696.84768 205.23462 696.94918 205.47966 696.99996 205.73479 697 206Z" fill="#555555"/>
<path transform="matrix(.75,0,0,.75,6.75,6.75)" d="M697 206C696.99996 206.2652 696.94918 206.52031 696.84768 206.76534 696.74618 207.01036 696.6017 207.22664 696.4141 207.41419 696.22659 207.60172 696.0103 207.74623 695.7653 207.84774 695.52029 207.94922 695.26516 207.99999 695 208 694.73477 207.99999 694.4796 207.94922 694.23458 207.84774 693.98959 207.74623 693.7733 207.60172 693.58578 207.41419 693.3982 207.22664 693.25369 207.01036 693.15219 206.76534 693.05068 206.52031 692.99996 206.2652 693 206 692.99996 205.73479 693.05068 205.47966 693.15219 205.23462 693.25369 204.98958 693.3982 204.7733 693.58578 204.58577 693.7733 204.39823 693.98959 204.25371 694.23458 204.15222 694.4796 204.05074 694.73477 204 695 204 695.26516 204 695.52029 204.05074 695.7653 204.15222 696.0103 204.25371 696.22659 204.39823 696.4141 204.58577 696.6017 204.7733 696.74618 204.98958 696.84768 205.23462 696.94918 205.47966 696.99996 205.73479 697 206Z" fill="#555555"/>
<path transform="matrix(.75,0,0,.75,13.5,-4.5)" d="M697 206C696.99996 206.2652 696.94918 206.52031 696.84768 206.76534 696.74618 207.01036 696.6017 207.22664 696.4141 207.41419 696.22659 207.60172 696.0103 207.74623 695.7653 207.84774 695.52029 207.94922 695.26516 207.99999 695 208 694.73477 207.99999 694.4796 207.94922 694.23458 207.84774 693.98959 207.74623 693.7733 207.60172 693.58578 207.41419 693.3982 207.22664 693.25369 207.01036 693.15219 206.76534 693.05068 206.52031 692.99996 206.2652 693 206 692.99996 205.73479 693.05068 205.47966 693.15219 205.23462 693.25369 204.98958 693.3982 204.7733 693.58578 204.58577 693.7733 204.39823 693.98959 204.25371 694.23458 204.15222 694.4796 204.05074 694.73477 204 695 204 695.26516 204 695.52029 204.05074 695.7653 204.15222 696.0103 204.25371 696.22659 204.39823 696.4141 204.58577 696.6017 204.7733 696.74618 204.98958 696.84768 205.23462 696.94918 205.47966 696.99996 205.73479 697 206Z" fill="#555555"/>
<path transform="matrix(.75,0,0,.75,11.25,-2.25)" d="M697 206C696.99996 206.2652 696.94918 206.52031 696.84768 206.76534 696.74618 207.01036 696.6017 207.22664 696.4141 207.41419 696.22659 207.60172 696.0103 207.74623 695.7653 207.84774 695.52029 207.94922 695.26516 207.99999 695 208 694.73477 207.99999 694.4796 207.94922 694.23458 207.84774 693.98959 207.74623 693.7733 207.60172 693.58578 207.41419 693.3982 207.22664 693.25369 207.01036 693.15219 206.76534 693.05068 206.52031 692.99996 206.2652 693 206 692.99996 205.73479 693.05068 205.47966 693.15219 205.23462 693.25369 204.98958 693.3982 204.7733 693.58578 204.58577 693.7733 204.39823 693.98959 204.25371 694.23458 204.15222 694.4796 204.05074 694.73477 204 695 204 695.26516 204 695.52029 204.05074 695.7653 204.15222 696.0103 204.25371 696.22659 204.39823 696.4141 204.58577 696.6017 204.7733 696.74618 204.98958 696.84768 205.23462 696.94918 205.47966 696.99996 205.73479 697 206Z" fill="#555555"/>
<path transform="matrix(.75,0,0,.75,9,0)" d="M697 206C696.99996 206.2652 696.94918 206.52031 696.84768 206.76534 696.74618 207.01036 696.6017 207.22664 696.4141 207.41419 696.22659 207.60172 696.0103 207.74623 695.7653 207.84774 695.52029 207.94922 695.26516 207.99999 695 208 694.73477 207.99999 694.4796 207.94922 694.23458 207.84774 693.98959 207.74623 693.7733 207.60172 693.58578 207.41419 693.3982 207.22664 693.25369 207.01036 693.15219 206.76534 693.05068 206.52031 692.99996 206.2652 693 206 692.99996 205.73479 693.05068 205.47966 693.15219 205.23462 693.25369 204.98958 693.3982 204.7733 693.58578 204.58577 693.7733 204.39823 693.98959 204.25371 694.23458 204.15222 694.4796 204.05074 694.73477 204 695 204 695.26516 204 695.52029 204.05074 695.7653 204.15222 696.0103 204.25371 696.22659 204.39823 696.4141 204.58577 696.6017 204.7733 696.74618 204.98958 696.84768 205.23462 696.94918 205.47966 696.99996 205.73479 697 206Z" fill="#555555"/>
<path transform="matrix(.75,0,0,.75,6.75,2.25)" d="M697 206C696.99996 206.2652 696.94918 206.52031 696.84768 206.76534 696.74618 207.01036 696.6017 207.22664 696.4141 207.41419 696.22659 207.60172 696.0103 207.74623 695.7653 207.84774 695.52029 207.94922 695.26516 207.99999 695 208 694.73477 207.99999 694.4796 207.94922 694.23458 207.84774 693.98959 207.74623 693.7733 207.60172 693.58578 207.41419 693.3982 207.22664 693.25369 207.01036 693.15219 206.76534 693.05068 206.52031 692.99996 206.2652 693 206 692.99996 205.73479 693.05068 205.47966 693.15219 205.23462 693.25369 204.98958 693.3982 204.7733 693.58578 204.58577 693.7733 204.39823 693.98959 204.25371 694.23458 204.15222 694.4796 204.05074 694.73477 204 695 204 695.26516 204 695.52029 204.05074 695.7653 204.15222 696.0103 204.25371 696.22659 204.39823 696.4141 204.58577 696.6017 204.7733 696.74618 204.98958 696.84768 205.23462 696.94918 205.47966 696.99996 205.73479 697 206Z" fill="#555555"/>
<path transform="matrix(.75,0,0,.75,4.5,4.5)" d="M697 206C696.99996 206.2652 696.94918 206.52031 696.84768 206.76534 696.74618 207.01036 696.6017 207.22664 696.4141 207.41419 696.22659 207.60172 696.0103 207.74623 695.7653 207.84774 695.52029 207.94922 695.26516 207.99999 695 208 694.73477 207.99999 694.4796 207.94922 694.23458 207.84774 693.98959 207.74623 693.7733 207.60172 693.58578 207.41419 693.3982 207.22664 693.25369 207.01036 693.15219 206.76534 693.05068 206.52031 692.99996 206.2652 693 206 692.99996 205.73479 693.05068 205.47966 693.15219 205.23462 693.25369 204.98958 693.3982 204.7733 693.58578 204.58577 693.7733 204.39823 693.98959 204.25371 694.23458 204.15222 694.4796 204.05074 694.73477 204 695 204 695.26516 204 695.52029 204.05074 695.7653 204.15222 696.0103 204.25371 696.22659 204.39823 696.4141 204.58577 696.6017 204.7733 696.74618 204.98958 696.84768 205.23462 696.94918 205.47966 696.99996 205.73479 697 206Z" fill="#555555"/>
<path transform="matrix(.75,0,0,.75,2.25,6.75)" d="M697 206C696.99996 206.2652 696.94918 206.52031 696.84768 206.76534 696.74618 207.01036 696.6017 207.22664 696.4141 207.41419 696.22659 207.60172 696.0103 207.74623 695.7653 207.84774 695.52029 207.94922 695.26516 207.99999 695 208 694.73477 207.99999 694.4796 207.94922 694.23458 207.84774 693.98959 207.74623 693.7733 207.60172 693.58578 207.41419 693.3982 207.22664 693.25369 207.01036 693.15219 206.76534 693.05068 206.52031 692.99996 206.2652 693 206 692.99996 205.73479 693.05068 205.47966 693.15219 205.23462 693.25369 204.98958 693.3982 204.7733 693.58578 204.58577 693.7733 204.39823 693.98959 204.25371 694.23458 204.15222 694.4796 204.05074 694.73477 204 695 204 695.26516 204 695.52029 204.05074 695.7653 204.15222 696.0103 204.25371 696.22659 204.39823 696.4141 204.58577 696.6017 204.7733 696.74618 204.98958 696.84768 205.23462 696.94918 205.47966 696.99996 205.73479 697 206Z" fill="#555555"/>
<path transform="matrix(.75,0,0,.75,11.25,-6.75)" d="M697 206C696.99996 206.2652 696.94918 206.52031 696.84768 206.76534 696.74618 207.01036 696.6017 207.22664 696.4141 207.41419 696.22659 207.60172 696.0103 207.74623 695.7653 207.84774 695.52029 207.94922 695.26516 207.99999 695 208 694.73477 207.99999 694.4796 207.94922 694.23458 207.84774 693.98959 207.74623 693.7733 207.60172 693.58578 207.41419 693.3982 207.22664 693.25369 207.01036 693.15219 206.76534 693.05068 206.52031 692.99996 206.2652 693 206 692.99996 205.73479 693.05068 205.47966 693.15219 205.23462 693.25369 204.98958 693.3982 204.7733 693.58578 204.58577 693.7733 204.39823 693.98959 204.25371 694.23458 204.15222 694.4796 204.05074 694.73477 204 695 204 695.26516 204 695.52029 204.05074 695.7653 204.15222 696.0103 204.25371 696.22659 204.39823 696.4141 204.58577 696.6017 204.7733 696.74618 204.98958 696.84768 205.23462 696.94918 205.47966 696.99996 205.73479 697 206Z" fill="#555555"/>
<path transform="matrix(.75,0,0,.75,9,-4.5)" d="M697 206C696.99996 206.2652 696.94918 206.52031 696.84768 206.76534 696.74618 207.01036 696.6017 207.22664 696.4141 207.41419 696.22659 207.60172 696.0103 207.74623 695.7653 207.84774 695.52029 207.94922 695.26516 207.99999 695 208 694.73477 207.99999 694.4796 207.94922 694.23458 207.84774 693.98959 207.74623 693.7733 207.60172 693.58578 207.41419 693.3982 207.22664 693.25369 207.01036 693.15219 206.76534 693.05068 206.52031 692.99996 206.2652 693 206 692.99996 205.73479 693.05068 205.47966 693.15219 205.23462 693.25369 204.98958 693.3982 204.7733 693.58578 204.58577 693.7733 204.39823 693.98959 204.25371 694.23458 204.15222 694.4796 204.05074 694.73477 204 695 204 695.26516 204 695.52029 204.05074 695.7653 204.15222 696.0103 204.25371 696.22659 204.39823 696.4141 204.58577 696.6017 204.7733 696.74618 204.98958 696.84768 205.23462 696.94918 205.47966 696.99996 205.73479 697 206Z" fill="#555555"/>
<path transform="matrix(.75,0,0,.75,6.75,-2.25)" d="M697 206C696.99996 206.2652 696.94918 206.52031 696.84768 206.76534 696.74618 207.01036 696.6017 207.22664 696.4141 207.41419 696.22659 207.60172 696.0103 207.74623 695.7653 207.84774 695.52029 207.94922 695.26516 207.99999 695 208 694.73477 207.99999 694.4796 207.94922 694.23458 207.84774 693.98959 207.74623 693.7733 207.60172 693.58578 207.41419 693.3982 207.22664 693.25369 207.01036 693.15219 206.76534 693.05068 206.52031 692.99996 206.2652 693 206 692.99996 205.73479 693.05068 205.47966 693.15219 205.23462 693.25369 204.98958 693.3982 204.7733 693.58578 204.58577 693.7733 204.39823 693.98959 204.25371 694.23458 204.15222 694.4796 204.05074 694.73477 204 695 204 695.26516 204 695.52029 204.05074 695.7653 204.15222 696.0103 204.25371 696.22659 204.39823 696.4141 204.58577 696.6017 204.7733 696.74618 204.98958 696.84768 205.23462 696.94918 205.47966 696.99996 205.73479 697 206Z" fill="#555555"/>
<path transform="matrix(.75,0,0,.75,4.5,0)" d="M697 206C696.99996 206.2652 696.94918 206.52031 696.84768 206.76534 696.74618 207.01036 696.6017 207.22664 696.4141 207.41419 696.22659 207.60172 696.0103 207.74623 695.7653 207.84774 695.52029 207.94922 695.26516 207.99999 695 208 694.73477 207.99999 694.4796 207.94922 694.23458 207.84774 693.98959 207.74623 693.7733 207.60172 693.58578 207.41419 693.3982 207.22664 693.25369 207.01036 693.15219 206.76534 693.05068 206.52031 692.99996 206.2652 693 206 692.99996 205.73479 693.05068 205.47966 693.15219 205.23462 693.25369 204.98958 693.3982 204.7733 693.58578 204.58577 693.7733 204.39823 693.98959 204.25371 694.23458 204.15222 694.4796 204.05074 694.73477 204 695 204 695.26516 204 695.52029 204.05074 695.7653 204.15222 696.0103 204.25371 696.22659 204.39823 696.4141 204.58577 696.6017 204.7733 696.74618 204.98958 696.84768 205.23462 696.94918 205.47966 696.99996 205.73479 697 206Z" fill="#555555"/>
<path transform="matrix(.75,0,0,.75,2.25,2.25)" d="M697 206C696.99996 206.2652 696.94918 206.52031 696.84768 206.76534 696.74618 207.01036 696.6017 207.22664 696.4141 207.41419 696.22659 207.60172 696.0103 207.74623 695.7653 207.84774 695.52029 207.94922 695.26516 207.99999 695 208 694.73477 207.99999 694.4796 207.94922 694.23458 207.84774 693.98959 207.74623 693.7733 207.60172 693.58578 207.41419 693.3982 207.22664 693.25369 207.01036 693.15219 206.76534 693.05068 206.52031 692.99996 206.2652 693 206 692.99996 205.73479 693.05068 205.47966 693.15219 205.23462 693.25369 204.98958 693.3982 204.7733 693.58578 204.58577 693.7733 204.39823 693.98959 204.25371 694.23458 204.15222 694.4796 204.05074 694.73477 204 695 204 695.26516 204 695.52029 204.05074 695.7653 204.15222 696.0103 204.25371 696.22659 204.39823 696.4141 204.58577 696.6017 204.7733 696.74618 204.98958 696.84768 205.23462 696.94918 205.47966 696.99996 205.73479 697 206Z" fill="#555555"/>
<path transform="matrix(.75,0,0,.75,0,4.5)" d="M697 206C696.99996 206.2652 696.94918 206.52031 696.84768 206.76534 696.74618 207.01036 696.6017 207.22664 696.4141 207.41419 696.22659 207.60172 696.0103 207.74623 695.7653 207.84774 695.52029 207.94922 695.26516 207.99999 695 208 694.73477 207.99999 694.4796 207.94922 694.23458 207.84774 693.98959 207.74623 693.7733 207.60172 693.58578 207.41419 693.3982 207.22664 693.25369 207.01036 693.15219 206.76534 693.05068 206.52031 692.99996 206.2652 693 206 692.99996 205.73479 693.05068 205.47966 693.15219 205.23462 693.25369 204.98958 693.3982 204.7733 693.58578 204.58577 693.7733 204.39823 693.98959 204.25371 694.23458 204.15222 694.4796 204.05074 694.73477 204 695 204 695.26516 204 695.52029 204.05074 695.7653 204.15222 696.0103 204.25371 696.22659 204.39823 696.4141 204.58577 696.6017 204.7733 696.74618 204.98958 696.84768 205.23462 696.94918 205.47966 696.99996 205.73479 697 206Z" fill="#555555"/>
<path transform="matrix(.75,0,0,.75,6.75,-6.75)" d="M697 206C696.99996 206.2652 696.94918 206.52031 696.84768 206.76534 696.74618 207.01036 696.6017 207.22664 696.4141 207.41419 696.22659 207.60172 696.0103 207.74623 695.7653 207.84774 695.52029 207.94922 695.26516 207.99999 695 208 694.73477 207.99999 694.4796 207.94922 694.23458 207.84774 693.98959 207.74623 693.7733 207.60172 693.58578 207.41419 693.3982 207.22664 693.25369 207.01036 693.15219 206.76534 693.05068 206.52031 692.99996 206.2652 693 206 692.99996 205.73479 693.05068 205.47966 693.15219 205.23462 693.25369 204.98958 693.3982 204.7733 693.58578 204.58577 693.7733 204.39823 693.98959 204.25371 694.23458 204.15222 694.4796 204.05074 694.73477 204 695 204 695.26516 204 695.52029 204.05074 695.7653 204.15222 696.0103 204.25371 696.22659 204.39823 696.4141 204.58577 696.6017 204.7733 696.74618 204.98958 696.84768 205.23462 696.94918 205.47966 696.99996 205.73479 697 206Z" fill="#555555"/>
<path transform="matrix(.75,0,0,.75,4.5,-4.5)" d="M697 206C696.99996 206.2652 696.94918 206.52031 696.84768 206.76534 696.74618 207.01036 696.6017 207.22664 696.4141 207.41419 696.22659 207.60172 696.0103 207.74623 695.7653 207.84774 695.52029 207.94922 695.26516 207.99999 695 208 694.73477 207.99999 694.4796 207.94922 694.23458 207.84774 693.98959 207.74623 693.7733 207.60172 693.58578 207.41419 693.3982 207.22664 693.25369 207.01036 693.15219 206.76534 693.05068 206.52031 692.99996 206.2652 693 206 692.99996 205.73479 693.05068 205.47966 693.15219 205.23462 693.25369 204.98958 693.3982 204.7733 693.58578 204.58577 693.7733 204.39823 693.98959 204.25371 694.23458 204.15222 694.4796 204.05074 694.73477 204 695 204 695.26516 204 695.52029 204.05074 695.7653 204.15222 696.0103 204.25371 696.22659 204.39823 696.4141 204.58577 696.6017 204.7733 696.74618 204.98958 696.84768 205.23462 696.94918 205.47966 696.99996 205.73479 697 206Z" fill="#555555"/>
<path transform="matrix(.75,0,0,.75,2.25,-2.25)" d="M697 206C696.99996 206.2652 696.94918 206.52031 696.84768 206.76534 696.74618 207.01036 696.6017 207.22664 696.4141 207.41419 696.22659 207.60172 696.0103 207.74623 695.7653 207.84774 695.52029 207.94922 695.26516 207.99999 695 208 694.73477 207.99999 694.4796 207.94922 694.23458 207.84774 693.98959 207.74623 693.7733 207.60172 693.58578 207.41419 693.3982 207.22664 693.25369 207.01036 693.15219 206.76534 693.05068 206.52031 692.99996 206.2652 693 206 692.99996 205.73479 693.05068 205.47966 693.15219 205.23462 693.25369 204.98958 693.3982 204.7733 693.58578 204.58577 693.7733 204.39823 693.98959 204.25371 694.23458 204.15222 694.4796 204.05074 694.73477 204 695 204 695.26516 204 695.52029 204.05074 695.7653 204.15222 696.0103 204.25371 696.22659 204.39823 696.4141 204.58577 696.6017 204.7733 696.74618 204.98958 696.84768 205.23462 696.94918 205.47966 696.99996 205.73479 697 206Z" fill="#555555"/>
</g>
</g>
<g clip-path="url(#clip_23)">
<path transform="matrix(.75,0,0,.75,0,0)" d="M697 206C696.99996 206.2652 696.94918 206.52031 696.84768 206.76534 696.74618 207.01036 696.6017 207.22664 696.4141 207.41419 696.22659 207.60172 696.0103 207.74623 695.7653 207.84774 695.52029 207.94922 695.26516 207.99999 695 208 694.73477 207.99999 694.4796 207.94922 694.23458 207.84774 693.98959 207.74623 693.7733 207.60172 693.58578 207.41419 693.3982 207.22664 693.25369 207.01036 693.15219 206.76534 693.05068 206.52031 692.99996 206.2652 693 206 692.99996 205.73479 693.05068 205.47966 693.15219 205.23462 693.25369 204.98958 693.3982 204.7733 693.58578 204.58577 693.7733 204.39823 693.98959 204.25371 694.23458 204.15222 694.4796 204.05074 694.73477 204 695 204 695.26516 204 695.52029 204.05074 695.7653 204.15222 696.0103 204.25371 696.22659 204.39823 696.4141 204.58577 696.6017 204.7733 696.74618 204.98958 696.84768 205.23462 696.94918 205.47966 696.99996 205.73479 697 206Z" fill="#555555"/>
</g>
</svg>
